<svg width="931" height="200" viewBox="0 0 931 200" fill="none" xmlns="http://www.w3.org/2000/svg">
<path d="M191.342 139.061H108.562V154.536H191.342V139.061Z" fill="#1A1A1A"/>
<path d="M183.598 13.1855C179.295 5.34204 170.964 0 161.361 0C147.37 0 136.028 11.3412 136.028 25.3323C136.028 26.6678 136.156 27.9609 136.368 29.2328L134.226 31.8614L0.421086 196.935C-0.23607 197.74 -0.108879 198.927 0.696667 199.585C1.43862 200.178 2.51974 200.136 3.1981 199.457L59.5227 143.196C69.91 132.83 83.9858 127.001 98.6764 127.001H118.285C161.127 127.001 186.884 102.601 182.22 52.4664C180.609 35.2108 181.499 27.9397 187.414 20.6474C190.466 16.8953 196.381 9.56055 196.381 9.56055L189.449 11.5108L183.577 13.1643L183.598 13.1855ZM161.891 28.4485C158.096 28.4485 155.022 25.3747 155.022 21.5801C155.022 17.7856 158.096 14.7118 161.891 14.7118C165.685 14.7118 168.759 17.7856 168.759 21.5801C168.759 25.3747 165.685 28.4485 161.891 28.4485Z" fill="#1A1A1A"/>
<path d="M268.532 2.96997H307.114C328.1 2.96997 340.607 5.93777 352.266 11.2374C377.069 22.6846 390.848 45.7911 390.848 79.0728C390.848 103.663 382.368 125.074 365.198 138.641C352.478 148.604 337.216 154.54 310.293 154.54H268.532V2.96997ZM305.63 139.065C347.391 139.065 371.557 123.378 371.557 78.8608C371.557 39.2195 348.027 18.2329 307.961 18.2329C300.754 18.2329 293.546 18.2329 286.551 18.4449V139.065H305.63Z" fill="#1A1A1A"/>
<path d="M410.289 76.5345C410.289 55.7599 428.519 40.285 455.018 40.285C484.272 40.285 498.263 53.8521 498.263 87.9817L498.051 132.287C498.051 141.826 498.687 149.246 499.959 154.545H484.06C483.424 149.458 483 144.37 482.788 138.01C474.944 149.458 463.285 156.665 443.782 156.665C420.676 156.665 404.989 146.066 404.989 125.927C404.989 102.821 426.188 94.9773 453.958 90.3136C462.225 89.0417 471.764 87.5578 481.516 86.7098V85.4379C481.516 63.6034 473.672 54.064 454.17 54.064C436.787 54.064 428.519 62.5435 427.035 76.9585H410.289V76.5345ZM481.94 101.125C481.94 100.277 481.94 99.641 482.152 99.005C479.396 99.641 476.428 99.8529 473.672 100.277L452.262 103.669C432.123 106.848 423.008 112.784 423.008 125.503C423.008 138.222 432.971 144.582 448.234 144.582C469.857 144.582 481.94 130.379 481.94 104.729V101.125Z" fill="#1A1A1A"/>
<path d="M581.359 76.5345C581.359 55.7599 599.589 40.285 626.088 40.285C655.342 40.285 669.333 53.8521 669.333 87.9817L669.121 132.287C669.121 141.826 669.757 149.246 671.029 154.545H655.13C654.494 149.458 654.07 144.37 653.858 138.01C646.014 149.458 634.355 156.665 614.852 156.665C591.746 156.665 576.059 146.066 576.059 125.927C576.059 102.821 597.258 94.9773 625.028 90.3136C633.295 89.0417 642.834 87.5578 652.586 86.7098V85.4379C652.586 63.6034 644.742 54.064 625.24 54.064C607.857 54.064 599.589 62.5435 598.106 76.9585H581.359V76.5345ZM653.01 101.125C653.01 100.277 653.01 99.641 653.222 99.005C650.466 99.641 647.498 99.8529 644.742 100.277L623.332 103.669C603.193 106.848 594.078 112.784 594.078 125.503C594.078 138.222 604.041 144.582 619.304 144.582C640.927 144.582 653.01 130.379 653.01 104.729V101.125Z" fill="#1A1A1A"/>
<path d="M695.331 2.96997H713.35V24.3805H695.331V2.96997ZM695.755 43.2472H712.926V154.54H695.755V43.2472Z" fill="#1A1A1A"/>
<path d="M740.411 2.96997H758.006V93.9118C772.209 77.8009 791.711 56.1784 802.735 43.2472H824.357C808.034 60.8421 795.315 74.1971 776.448 93.9118L829.233 154.54H805.702C797.011 143.304 773.481 115.746 758.006 97.7276V154.54H740.411V2.96997Z" fill="#1A1A1A"/>
<path d="M839.918 112.786V43.2545H857.512V107.486C857.512 129.321 865.568 143.312 884.435 143.312C903.301 143.312 912.205 127.837 912.205 110.242V43.2545H929.8V137.588C929.8 143.312 929.8 148.823 930.012 154.547H912.629V139.284C907.329 148.187 896.942 157.515 877.651 157.515C852.001 157.515 839.918 140.98 839.918 112.786Z" fill="#1A1A1A"/>
<path d="M544.891 56.3897H566.09V43.2466H544.891V13.1446H527.508V43.2466H510.338V56.3897H527.508V140.548C527.508 148.285 533.783 154.539 541.5 154.539H563.97V140.548H548.792C546.63 140.548 544.891 138.81 544.891 136.647V56.3897Z" fill="#1A1A1A"/>
</svg>
